<svg xmlns="http://www.w3.org/2000/svg" id="Capa_1" enable-background="new 0 0 512 512" height="512" viewBox="0 0 512 512" width="512" style="&#10;    margin: auto;&#10;"><path d="m0 38.333v435.333h512v-435.333zm482 405.334h-452v-290h452zm-452-375.334h55.333v55.333h-55.333zm452 55.334h-366.667v-55.334h366.667z" style="&#10;    fill: #cf5e98;&#10;"/><path d="m83.236 305.605h58.862v21.317h30.704v-21.317h16.545v-24.977h-16.545v-18.931h-29.75v18.931h-22.59l45.34-65.067h-32.613l-49.953 69.521z" style="fill: #6951a9;"/><path d="m254.409 329.15c28.317 0 48.999-21.159 48.999-57.908s-20.682-57.908-48.999-57.908c-28.477 0-49.158 21.159-49.158 57.908s20.681 57.908 49.158 57.908zm0-90.044c10.022 0 17.34 8.75 17.34 32.136s-7.318 32.136-17.34 32.136c-10.182 0-17.5-8.75-17.5-32.136s7.319-32.136 17.5-32.136z" style="&#10;    fill: #a05079;&#10;"/><path d="m381.515 326.922h30.704v-21.317h16.545v-24.977h-16.545v-18.931h-29.75v18.931h-22.59l45.34-65.067h-32.613l-49.953 69.521v20.523h58.862z" style="&#10;    fill: #6951a9;&#10;"/><path d="m170.666 358.333h170.667v30h-170.667z" style="&#10;    fill: #929292;&#10;"/></svg>