<svg width="24" height="24" viewBox="0 0 24 24" fill="none" xmlns="http://www.w3.org/2000/svg">
<path d="M15.6005 12C15.6005 12.9548 15.2212 13.8705 14.5461 14.5456C13.8709 15.2207 12.9552 15.6 12.0005 15.6C11.0457 15.6 10.13 15.2207 9.45488 14.5456C8.77975 13.8705 8.40047 12.9548 8.40047 12C8.40047 11.7948 8.42207 11.5944 8.45927 11.4H7.20047V16.1964C7.20047 16.53 7.47047 16.8 7.80407 16.8H16.1981C16.3579 16.7997 16.5112 16.736 16.6241 16.6228C16.737 16.5096 16.8005 16.3563 16.8005 16.1964V11.4H15.5417C15.5789 11.5944 15.6005 11.7948 15.6005 12ZM12.0005 14.4C12.3157 14.3999 12.6279 14.3378 12.9191 14.217C13.2103 14.0963 13.4749 13.9194 13.6978 13.6965C13.9206 13.4735 14.0974 13.2088 14.218 12.9175C14.3385 12.6262 14.4005 12.3141 14.4005 11.9988C14.4004 11.6836 14.3382 11.3714 14.2175 11.0802C14.0968 10.789 13.9199 10.5244 13.6969 10.3015C13.474 10.0786 13.2093 9.90189 12.918 9.78132C12.6267 9.66075 12.3145 9.59873 11.9993 9.59881C11.3626 9.59897 10.7521 9.85204 10.302 10.3024C9.85188 10.7527 9.59911 11.3633 9.59927 12C9.59943 12.6367 9.8525 13.2472 10.3028 13.6973C10.7531 14.1474 11.3638 14.4002 12.0005 14.4ZM14.8805 9.48001H16.3193C16.4149 9.48001 16.5065 9.44212 16.5743 9.37464C16.642 9.30716 16.6802 9.2156 16.6805 9.12001V7.68121C16.6805 7.58541 16.6424 7.49354 16.5747 7.4258C16.5069 7.35807 16.4151 7.32001 16.3193 7.32001H14.8805C14.7847 7.32001 14.6928 7.35807 14.6251 7.4258C14.5573 7.49354 14.5193 7.58541 14.5193 7.68121V9.12001C14.5205 9.31801 14.6825 9.48001 14.8805 9.48001ZM12.0005 0.480011C8.94518 0.480011 6.01502 1.69372 3.8546 3.85414C1.69418 6.01456 0.480469 8.94472 0.480469 12C0.480469 15.0553 1.69418 17.9855 3.8546 20.1459C6.01502 22.3063 8.94518 23.52 12.0005 23.52C13.5133 23.52 15.0113 23.222 16.409 22.6431C17.8067 22.0642 19.0766 21.2156 20.1463 20.1459C21.2161 19.0762 22.0646 17.8062 22.6436 16.4085C23.2225 15.0109 23.5205 13.5128 23.5205 12C23.5205 10.4872 23.2225 8.98917 22.6436 7.5915C22.0646 6.19383 21.2161 4.92387 20.1463 3.85414C19.0766 2.78441 17.8067 1.93585 16.409 1.35692C15.0113 0.777985 13.5133 0.480011 12.0005 0.480011ZM18.0005 16.6668C18.0005 17.4 17.4005 18 16.6673 18H7.33367C6.60047 18 6.00047 17.4 6.00047 16.6668V7.33321C6.00047 6.60001 6.60047 6.00001 7.33367 6.00001H16.6673C17.4005 6.00001 18.0005 6.60001 18.0005 7.33321V16.6668Z" fill="white"/>
</svg>
