<svg width="24" height="24" viewBox="0 0 24 24" fill="none" xmlns="http://www.w3.org/2000/svg">
<path d="M12.48 0.47998C6.11756 0.47998 0.959961 5.63758 0.959961 12C0.959961 18.3624 6.11756 23.52 12.48 23.52C18.8424 23.52 24 18.3624 24 12C24 5.63758 18.8424 0.47998 12.48 0.47998ZM9.65996 16.7748H7.32716V9.26758H9.65996V16.7748ZM8.47916 8.34598C7.74236 8.34598 7.26596 7.82398 7.26596 7.17838C7.26596 6.51958 7.75676 6.01318 8.50916 6.01318C9.26156 6.01318 9.72236 6.51958 9.73676 7.17838C9.73676 7.82398 9.26156 8.34598 8.47916 8.34598ZM18.18 16.7748H15.8472V12.6144C15.8472 11.646 15.5088 10.9884 14.6652 10.9884C14.0208 10.9884 13.638 11.4336 13.4688 11.862C13.4064 12.0144 13.3908 12.2304 13.3908 12.4452V16.7736H11.0568V11.6616C11.0568 10.7244 11.0268 9.94078 10.9956 9.26638H13.0224L13.1292 10.3092H13.176C13.4832 9.81958 14.2356 9.09718 15.4944 9.09718C17.0292 9.09718 18.18 10.1256 18.18 12.336V16.7748Z" fill="white"/>
</svg>
